<svg width="3271" height="2200" viewBox="0 0 3271 2200" fill="none" xmlns="http://www.w3.org/2000/svg">
<g opacity="0.7">
<path opacity="0.7" d="M623.487 1607.77C627.401 1592.01 626.455 1575.43 620.774 1560.22C615.093 1545 604.945 1531.87 591.665 1522.55C584.654 1517.81 576.826 1514.19 570.359 1508.74C559.57 1499.64 553.342 1486.24 548.985 1472.84C538.298 1440.73 534.929 1404.66 516.21 1375.65C499.192 1349.23 465.974 1341.56 436.534 1338.86C425.813 1337.91 414.547 1337.4 404.745 1341.86C388.34 1349.3 380.512 1368.69 379.764 1386.73C379.015 1404.76 383.712 1422.52 384.869 1440.52C386.026 1458.52 382.827 1478.33 369.587 1490.54C356.348 1502.74 337.356 1504.17 319.76 1506.63C296.723 1509.83 274.089 1515.46 252.235 1523.43C233.89 1530.25 213.435 1542.22 212.584 1561.72C211.87 1577.67 224.735 1590.42 234.401 1603.14C252.473 1627 261.629 1658.23 255.366 1687.45C249.104 1716.66 228.138 1742.71 224.497 1772.84C223.119 1780.5 224.179 1788.39 227.526 1795.41C230.457 1800.18 234.324 1804.29 238.893 1807.51C250.227 1816.28 262.718 1823.33 273.609 1832.84C295.97 1852.69 308.086 1881.49 317.412 1909.92C318.297 1912.65 319.114 1915.45 319.964 1918.17H297.978C276.485 1918.29 255.904 1926.89 240.696 1942.1C225.488 1957.31 216.88 1977.92 216.737 1999.45C216.835 2021.02 225.433 2041.68 240.66 2056.93C255.888 2072.18 276.512 2080.79 298.046 2080.89H517.571C539.105 2080.79 559.729 2072.18 574.956 2056.93C590.184 2041.68 598.782 2021.02 598.88 1999.45V1999.45C598.782 1977.88 590.184 1957.22 574.956 1941.97C559.729 1926.72 539.105 1918.1 517.571 1918H457.397C471.624 1898.91 486.497 1880.98 508.45 1873.69C530.402 1866.39 556.983 1870.65 574.205 1855.31C582.304 1847.35 587.556 1836.94 589.146 1825.69C592.788 1805.63 589.385 1784.94 579.514 1767.12C572.707 1754.74 562.497 1743.53 560.285 1729.62C558.413 1717.65 562.735 1705.51 568.589 1694.88C585.198 1664.64 614.57 1641.15 623.487 1607.77Z" fill="url(#paint0_linear)"/>
</g>
<path d="M432.873 1366.85C422.609 1365.95 411.832 1365.49 402.457 1369.64C386.753 1376.54 379.26 1394.54 378.507 1411.24C377.754 1427.94 382.305 1444.44 383.4 1461.04C384.495 1477.64 381.449 1496.09 368.756 1507.51C356.063 1518.94 337.963 1520.16 321.062 1522.42C299.009 1525.42 277.345 1530.67 256.431 1538.09C238.879 1544.3 219.309 1555.49 218.488 1573.62C217.803 1588.42 230.121 1600.18 239.393 1612.03C256.705 1634.07 265.327 1663.12 259.442 1690.21C253.557 1717.3 233.508 1741.47 229.881 1769.43C228.568 1776.52 229.585 1783.84 232.789 1790.34C235.605 1794.76 239.318 1798.58 243.704 1801.56C254.549 1809.7 266.661 1816.24 276.925 1825.07C298.343 1843.46 309.908 1870.19 318.872 1896.55C327.63 1922.46 334.49 1948.94 339.4 1975.8C357.842 1964.28 381.689 1964.44 401.362 1955.08C443.274 1935.16 457.37 1877.39 501.609 1863.02C522.548 1856.38 548.072 1860.19 564.563 1845.99C572.313 1838.61 577.34 1828.96 578.865 1818.53C582.344 1799.93 579.08 1780.74 569.627 1764.21C563.024 1752.73 553.307 1742.34 551.22 1729.32C549.406 1718.2 553.58 1706.98 559.157 1697.12C575.067 1669.06 603.191 1647.32 611.779 1616.34C615.526 1601.72 614.622 1586.35 609.186 1572.24C603.751 1558.13 594.038 1545.94 581.328 1537.3C574.253 1533.38 567.401 1529.11 560.8 1524.48C550.535 1516.05 544.616 1503.6 540.271 1491.28C530.007 1461.4 526.825 1428.2 508.897 1401.14C492.816 1376.44 461.066 1369.3 432.873 1366.85Z" fill="#4DB6AC"/>
<path opacity="0.6" d="M441.248 1366.24C441.248 1366.24 480.837 1874.54 377.877 1961.78" stroke="#D4D4D4" stroke-miterlimit="10"/>
<path d="M538.392 1905.73H276.406C247.664 1905.73 224.365 1927.74 224.365 1954.89V2003.71C224.365 2030.86 247.664 2052.87 276.406 2052.87H538.392C567.133 2052.87 590.433 2030.86 590.433 2003.71V1954.89C590.433 1927.74 567.133 1905.73 538.392 1905.73Z" fill="black"/>
<path opacity="0.6" d="M218.46 1563.01C218.46 1563.01 322.133 1552.68 448.729 1618.47" stroke="#D4D4D4" stroke-miterlimit="10"/>
<path opacity="0.6" d="M448.729 1688.53C448.729 1688.53 501.258 1600.31 614.051 1583.44" stroke="#D4D4D4" stroke-miterlimit="10"/>
<path opacity="0.6" d="M224.365 1772.1C224.365 1772.1 370.007 1750.29 436.92 1786.63" stroke="#D4D4D4" stroke-miterlimit="10"/>
<path opacity="0.6" d="M431.016 1835.67C431.016 1835.67 497.696 1794.12 572.72 1827.85" stroke="#D4D4D4" stroke-miterlimit="10"/>
<g opacity="0.7">
<path opacity="0.7" d="M3011.42 1811.16V1758.6H2739.61V2001.59C2739.61 2015.19 2745.2 2028.23 2755.14 2037.85C2765.09 2047.46 2778.58 2052.87 2792.65 2052.87H2958.38C2972.45 2052.87 2985.94 2047.46 2995.89 2037.85C3005.83 2028.23 3011.42 2015.19 3011.42 2001.59V1947.75C3030.16 1947.75 3048.12 1940.55 3061.37 1927.75C3074.62 1914.94 3082.06 1897.57 3082.06 1879.45C3082.06 1861.34 3074.62 1843.97 3061.37 1831.16C3048.12 1818.35 3030.16 1811.16 3011.42 1811.16ZM3011.42 1921.5V1837.44C3017.23 1837.28 3023.01 1838.26 3028.43 1840.3C3033.84 1842.34 3038.78 1845.41 3042.95 1849.33C3047.11 1853.25 3050.42 1857.93 3052.69 1863.11C3054.95 1868.29 3056.11 1873.85 3056.11 1879.47C3056.11 1885.09 3054.95 1890.65 3052.69 1895.83C3050.42 1901 3047.11 1905.69 3042.95 1909.61C3038.78 1913.53 3033.84 1916.6 3028.43 1918.64C3023.01 1920.68 3017.23 1921.66 3011.42 1921.5V1921.5Z" fill="url(#paint1_linear)"/>
</g>
<path d="M3008.26 1814.65C2994.83 1814.65 2981.7 1818.35 2970.53 1825.28C2959.37 1832.2 2950.67 1842.05 2945.53 1853.58C2940.39 1865.1 2939.04 1877.78 2941.66 1890.01C2944.28 1902.24 2950.75 1913.48 2960.24 1922.29C2969.74 1931.11 2981.84 1937.12 2995.01 1939.55C3008.18 1941.98 3021.83 1940.74 3034.24 1935.96C3046.65 1931.19 3057.25 1923.11 3064.71 1912.74C3072.17 1902.37 3076.16 1890.18 3076.16 1877.71C3076.16 1869.43 3074.4 1861.23 3070.99 1853.58C3067.58 1845.92 3062.57 1838.97 3056.27 1833.12C3049.96 1827.26 3042.48 1822.62 3034.24 1819.45C3026 1816.28 3017.17 1814.65 3008.26 1814.65V1814.65ZM3008.26 1916.49C2999.98 1916.49 2991.88 1914.21 2985 1909.94C2978.11 1905.67 2972.74 1899.59 2969.57 1892.49C2966.41 1885.38 2965.58 1877.57 2967.19 1870.02C2968.81 1862.48 2972.79 1855.55 2978.65 1850.11C2984.51 1844.68 2991.97 1840.97 3000.09 1839.47C3008.21 1837.97 3016.63 1838.74 3024.28 1841.68C3031.93 1844.63 3038.47 1849.61 3043.07 1856.01C3047.67 1862.4 3050.13 1869.92 3050.13 1877.61C3050.13 1882.72 3049.05 1887.78 3046.95 1892.5C3044.85 1897.22 3041.77 1901.51 3037.88 1905.13C3033.99 1908.74 3029.37 1911.61 3024.29 1913.56C3019.21 1915.52 3013.76 1916.53 3008.26 1916.53V1916.49Z" fill="black"/>
<path opacity="0.1" d="M3008.26 1814.65C2994.83 1814.65 2981.7 1818.35 2970.53 1825.28C2959.37 1832.2 2950.67 1842.05 2945.53 1853.58C2940.39 1865.1 2939.04 1877.78 2941.66 1890.01C2944.28 1902.24 2950.75 1913.48 2960.24 1922.29C2969.74 1931.11 2981.84 1937.12 2995.01 1939.55C3008.18 1941.98 3021.83 1940.74 3034.24 1935.96C3046.65 1931.19 3057.25 1923.11 3064.71 1912.74C3072.17 1902.37 3076.16 1890.18 3076.16 1877.71C3076.16 1869.43 3074.4 1861.23 3070.99 1853.58C3067.58 1845.92 3062.57 1838.97 3056.27 1833.12C3049.96 1827.26 3042.48 1822.62 3034.24 1819.45C3026 1816.28 3017.17 1814.65 3008.26 1814.65V1814.65ZM3008.26 1916.49C2999.98 1916.49 2991.88 1914.21 2985 1909.94C2978.11 1905.67 2972.74 1899.59 2969.57 1892.49C2966.41 1885.38 2965.58 1877.57 2967.19 1870.02C2968.81 1862.48 2972.79 1855.55 2978.65 1850.11C2984.51 1844.68 2991.97 1840.97 3000.09 1839.47C3008.21 1837.97 3016.63 1838.74 3024.28 1841.68C3031.93 1844.63 3038.47 1849.61 3043.07 1856.01C3047.67 1862.4 3050.13 1869.92 3050.13 1877.61C3050.13 1882.72 3049.05 1887.78 3046.95 1892.5C3044.85 1897.22 3041.77 1901.51 3037.88 1905.13C3033.99 1908.74 3029.37 1911.61 3024.29 1913.56C3019.21 1915.52 3013.76 1916.53 3008.26 1916.53V1916.49Z" fill="black"/>
<path d="M2757.32 1765.61H3005.3V2019.45C3005.3 2028.31 3001.9 2036.81 2995.84 2043.08C2989.78 2049.35 2981.57 2052.87 2973 2052.87H2789.7C2781.13 2052.87 2772.91 2049.35 2766.85 2043.08C2760.79 2036.81 2757.39 2028.31 2757.39 2019.45V1765.61H2757.32Z" fill="black"/>
<path d="M3271 2052.86H0V2150.95H3271V2052.86Z" fill="#E0E0E0"/>
<g opacity="0.7">
<path opacity="0.7" d="M2152.97 1313.9C2117.69 1188.28 1917.63 1096.54 1767.12 1076.2C1767.12 1075.27 1767.12 1074.33 1767.12 1073.4V965.904H1767.59V961.682C1821 942.193 1869.2 911.05 1908.54 870.607C1947.88 830.164 1977.33 781.48 1994.66 728.234C2003.97 711.732 2012.07 694.604 2018.9 676.977C2034.96 671.226 2047.09 645.266 2047.09 614.019C2047.15 603.333 2045.62 592.695 2042.55 582.441C2044.53 566.536 2045.53 550.53 2045.57 534.508C2045.63 478.502 2033.68 423.109 2010.5 371.925C1987.32 320.741 1953.43 274.909 1911.02 237.404C1912.29 230.968 1912.72 224.401 1912.31 217.859C1908.92 166.236 1852.69 131.167 1800.03 128.84C1813.94 113.356 1823.09 94.315 1826.41 73.9315C1829.73 53.5481 1827.08 32.6596 1818.77 13.6951C1785.18 61.6945 1716.21 66.88 1656.87 67.1791C1682.49 57.4397 1694.15 22.6368 1679.1 0C1617.08 81.5391 1496.09 96.6635 1422.34 168.164C1406.26 183.811 1392.79 201.837 1382.42 221.581C1334.47 259.046 1295.75 306.637 1269.16 360.812C1242.57 414.987 1228.78 474.348 1228.82 534.475C1228.85 550.351 1229.83 566.213 1231.77 581.976C1228.6 592.361 1227.03 603.148 1227.09 613.986C1227.09 645.365 1239.33 671.426 1255.53 677.143C1262.38 694.829 1270.51 712.014 1279.86 728.566C1297.13 781.517 1326.39 829.951 1365.44 870.245C1404.49 910.539 1452.33 941.65 1505.37 961.25V1073.6C1505.37 1074.47 1505.37 1075.33 1505.37 1076.2C1354.29 1096.14 1152.63 1188.65 1117.65 1315.26C1087.46 1424.62 1055.23 1544.62 1039.16 1615.22C1176.66 1709.99 1465.14 1765.61 1645.82 1765.61C1817.62 1765.61 2098.37 1715.38 2231.84 1629.12C2217.74 1551.47 2184.49 1426.05 2152.97 1313.9Z" fill="url(#paint2_linear)"/>
</g>
<path d="M1648.37 1737.58C1812.5 1737.58 2080.71 1689.39 2208.22 1606.58C2194.43 1532.24 2162.64 1411.89 2132.53 1304.21C2094.2 1167.06 1852.17 1071.97 1707.81 1071.97H1568.69C1423.86 1071.97 1181.53 1167.59 1143.67 1305.33C1114.8 1410.3 1084.02 1525.56 1068.68 1593.22C1199.92 1684.2 1475.65 1737.58 1648.37 1737.58Z" fill="black"/>
<path d="M1638.45 938.853C1855.3 938.853 2031.09 761.62 2031.09 542.993C2031.09 324.365 1855.3 147.133 1638.45 147.133C1421.61 147.133 1245.82 324.365 1245.82 542.993C1245.82 761.62 1421.61 938.853 1638.45 938.853Z" fill="#72351C"/>
<path opacity="0.1" d="M1511.51 868.791H1765.4V1067.12C1765.4 1100 1752.02 1131.53 1728.21 1154.78C1704.41 1178.02 1672.12 1191.08 1638.45 1191.08C1604.78 1191.08 1572.5 1178.02 1548.69 1154.78C1524.88 1131.53 1511.51 1100 1511.51 1067.12V868.791V868.791Z" fill="black"/>
<path d="M1547.95 861.784H1728.99C1738.65 861.784 1747.91 865.529 1754.73 872.197C1761.56 878.864 1765.4 887.906 1765.4 897.335V1060.11C1765.4 1092.99 1752.02 1124.52 1728.21 1147.77C1704.41 1171.02 1672.12 1184.08 1638.45 1184.08V1184.08C1621.78 1184.08 1605.27 1180.87 1589.87 1174.64C1574.47 1168.41 1560.48 1159.28 1548.69 1147.77C1536.9 1136.26 1527.55 1122.59 1521.17 1107.55C1514.79 1092.51 1511.51 1076.39 1511.51 1060.11V897.335C1511.51 892.664 1512.45 888.038 1514.28 883.723C1516.12 879.407 1518.8 875.486 1522.18 872.185C1525.57 868.883 1529.59 866.265 1534.01 864.48C1538.43 862.696 1543.17 861.779 1547.95 861.784V861.784Z" fill="#FDA57D"/>
<path opacity="0.1" d="M1511.51 966.742C1593.33 994.724 1683.4 994.957 1765.4 967.397V938.854H1511.51V966.742Z" fill="black"/>
<path d="M1644.36 980.892C1841.64 980.892 2001.57 820.912 2001.57 623.567C2001.57 426.222 1841.64 266.242 1644.36 266.242C1447.08 266.242 1287.15 426.222 1287.15 623.567C1287.15 820.912 1447.08 980.892 1644.36 980.892Z" fill="#FDA57D"/>
<path opacity="0.1" d="M1381.61 302.309C1381.61 302.309 1534.63 615.612 1966.14 433.606L1865.83 274.69L1687.65 210.191L1381.61 302.309Z" fill="black"/>
<path d="M1381.61 302.332C1381.61 302.332 1534.63 615.596 1966.14 433.613L1865.83 274.683L1687.65 210.191L1381.61 302.332Z" fill="#72351C"/>
<path d="M1383.2 280.688C1393.35 248.481 1410.89 219.242 1434.35 195.427C1504.61 124.227 1619.77 109.205 1678.85 28.0254C1693.04 50.5582 1682.2 85.1976 1657.68 94.8692C1714.18 94.4919 1779.86 89.4161 1811.84 41.6411C1819.75 60.5156 1822.27 81.3031 1819.11 101.587C1815.94 121.871 1807.23 140.818 1793.98 156.226C1844.16 158.558 1897.69 193.472 1901.04 244.813C1903.21 279.11 1882.27 311.452 1854.84 331.069C1827.4 350.687 1794.21 359.707 1761.53 367.08C1666.04 388.687 1320.8 479.024 1383.2 280.688Z" fill="#72351C"/>
<path d="M2001.57 616.629H1992.07L1807.79 784.126C1630.42 699.181 1499.9 784.126 1499.9 784.126L1306.62 623.466L1287.15 625.961C1289.71 721.791 1329.09 812.74 1396.78 879.15C1464.47 945.561 1555.03 982.097 1648.88 980.862C1742.73 979.627 1832.33 940.72 1898.32 872.551C1964.31 804.381 2001.39 712.426 2001.54 616.561L2001.57 616.629ZM1643.74 848.458C1574.23 848.458 1517.9 834.067 1517.9 816.326C1517.9 798.585 1574.26 784.194 1643.74 784.194C1713.22 784.194 1769.58 798.585 1769.58 816.326C1769.58 834.067 1713.25 848.458 1643.74 848.458Z" fill="#72351C"/>
<path d="M1278.29 693.631C1296.22 693.631 1310.76 665.399 1310.76 630.573C1310.76 595.748 1296.22 567.516 1278.29 567.516C1260.35 567.516 1245.82 595.748 1245.82 630.573C1245.82 665.399 1260.35 693.631 1278.29 693.631Z" fill="#FDA57D"/>
<path d="M1998.62 693.631C2016.55 693.631 2031.09 665.399 2031.09 630.573C2031.09 595.748 2016.55 567.516 1998.62 567.516C1980.68 567.516 1966.14 595.748 1966.14 630.573C1966.14 665.399 1980.68 693.631 1998.62 693.631Z" fill="#FDA57D"/>
<g opacity="0.7">
<path opacity="0.7" d="M2283.3 1254.14H987.696C960.685 1254.14 938.788 1275.94 938.788 1302.82V2004.18C938.788 2031.07 960.685 2052.87 987.696 2052.87H2283.3C2310.31 2052.87 2332.21 2031.07 2332.21 2004.18V1302.82C2332.21 1275.94 2310.31 1254.14 2283.3 1254.14Z" fill="url(#paint3_linear)"/>
</g>
<path d="M2217.85 1261.15H1053.15C1003.03 1261.15 962.406 1301.89 962.406 1352.15V1961.86C962.406 2012.12 1003.03 2052.87 1053.15 2052.87H2217.85C2267.97 2052.87 2308.59 2012.12 2308.59 1961.86V1352.15C2308.59 1301.89 2267.97 1261.15 2217.85 1261.15Z" fill="#D4D4D4"/>
<path d="M1635.5 1695.54C1661.59 1695.54 1682.73 1676.72 1682.73 1653.5C1682.73 1630.29 1661.59 1611.46 1635.5 1611.46C1609.41 1611.46 1588.27 1630.29 1588.27 1653.5C1588.27 1676.72 1609.41 1695.54 1635.5 1695.54Z" fill="white"/>
<path d="M3135.2 2150.96H135.8V2200H3135.2V2150.96Z" fill="#E0E0E0"/>
<path opacity="0.1" d="M3135.2 2150.96H135.8V2171.97H3135.2V2150.96Z" fill="black"/>
<path opacity="0.1" d="M2961.58 1765.61V2002.86C2961.58 2016.12 2956.23 2028.84 2946.72 2038.22C2937.2 2047.6 2924.29 2052.87 2910.84 2052.87H2936.85C2950.31 2052.87 2963.22 2047.6 2972.73 2038.22C2982.25 2028.84 2987.59 2016.12 2987.59 2002.86V1765.61H2961.58Z" fill="black"/>
<path d="M2810.37 1589.53C2806.27 1590.23 2801.61 1591.32 2799.59 1594.91C2796.33 1600.61 2802.2 1607.04 2807.47 1610.91C2817.24 1618.15 2827.53 1625.26 2834.17 1635.34C2840.82 1645.43 2842.9 1659.51 2835.64 1669.21C2826.16 1681.86 2803.56 1684.55 2801.38 1700.11C2799.98 1710.1 2808.74 1718.61 2817.66 1723.61C2839.61 1735.96 2867.91 1739.26 2883.84 1758.6C2890.35 1745.31 2905.13 1737.63 2919.66 1734.33C2934.18 1731.03 2949.55 1731.29 2964.44 1729.08C2969.22 1728.38 2974.63 1726.94 2976.78 1722.68C2980.95 1714.39 2969.09 1704.43 2973.16 1696.11C2976.42 1689.7 2985.41 1690.25 2992.08 1687.72C3002.96 1683.59 3007.42 1669.82 3004.36 1658.9C3001.3 1647.99 2992.57 1639.21 2983.39 1632.14C2958.7 1612.93 2929 1601.85 2898.95 1593.72C2884.98 1589.98 2868.56 1584.12 2854.07 1583.51C2840.23 1582.84 2824.24 1587.13 2810.37 1589.53Z" fill="#EEEEEE"/>
<defs>
<linearGradient id="paint0_linear" x1="212.618" y1="1709.64" x2="626.006" y2="1709.64" gradientUnits="userSpaceOnUse">
<stop stop-color="#808080" stop-opacity="0.25"/>
<stop offset="0.54" stop-color="#808080" stop-opacity="0.12"/>
<stop offset="1" stop-color="#808080" stop-opacity="0.1"/>
</linearGradient>
<linearGradient id="paint1_linear" x1="338153" y1="219102" x2="338153" y2="192085" gradientUnits="userSpaceOnUse">
<stop stop-color="#808080" stop-opacity="0.25"/>
<stop offset="0.54" stop-color="#808080" stop-opacity="0.12"/>
<stop offset="1" stop-color="#808080" stop-opacity="0.1"/>
</linearGradient>
<linearGradient id="paint2_linear" x1="717420" y1="1.14784e+06" x2="717420" y2="210107" gradientUnits="userSpaceOnUse">
<stop stop-color="#808080" stop-opacity="0.25"/>
<stop offset="0.54" stop-color="#808080" stop-opacity="0.12"/>
<stop offset="1" stop-color="#808080" stop-opacity="0.1"/>
</linearGradient>
<linearGradient id="paint3_linear" x1="677752" y1="492950" x2="677752" y2="302933" gradientUnits="userSpaceOnUse">
<stop stop-color="#808080" stop-opacity="0.25"/>
<stop offset="0.54" stop-color="#808080" stop-opacity="0.12"/>
<stop offset="1" stop-color="#808080" stop-opacity="0.1"/>
</linearGradient>
</defs>
</svg>
